<svg width="323" height="243" viewBox="0 0 323 243" fill="none" xmlns="http://www.w3.org/2000/svg">
<path fill-rule="evenodd" clip-rule="evenodd" d="M0.000572006 240.476H315.862V144.023C315.862 144.023 280.389 142.735 252.596 188.352C247.18 197.242 233.174 209.444 211.083 208.486C205.643 208.249 197.598 204.274 190.129 200.085C177.885 193.217 163.102 192.59 150.32 198.395C148.229 199.345 146.051 200.401 143.81 201.577C136.069 205.637 121.829 211.727 111.186 205.633C111.075 205.57 110.962 205.506 110.849 205.447C108.885 204.392 88.362 193.403 70.4749 183.827C51.6926 173.769 28.3732 179.064 15.7752 196.246C7.17675 207.964 -0.0741224 223.033 0.000572006 240.476Z" fill="#FFC3BB"/>
<path fill-rule="evenodd" clip-rule="evenodd" d="M2.38509 67.5052C2.30412 67.5149 2.22202 67.5198 2.13877 67.5198C0.958292 67.5198 0 66.5222 0 65.2933C0 64.0644 0.958292 63.0667 2.13877 63.0667C3.31924 63.0667 4.27773 64.0644 4.27773 65.2933C4.27773 66.0115 3.95025 66.6506 3.44278 67.0578L60.439 196.405C60.6848 196.302 60.9531 196.245 61.2342 196.245C61.7675 196.245 62.2556 196.449 62.6304 196.787L103.086 150.487C103.042 150.309 103.018 150.123 103.018 149.931C103.018 148.701 103.977 147.704 105.157 147.704C106.338 147.704 107.296 148.701 107.296 149.931C107.296 150.175 107.258 150.408 107.189 150.628L143.616 192.234C143.996 191.88 144.498 191.665 145.047 191.665C145.729 191.665 146.34 191.999 146.731 192.519L255.886 111.342C255.867 111.222 255.857 111.097 255.857 110.969C255.857 109.74 256.815 108.743 257.995 108.743C259.176 108.743 260.134 109.74 260.134 110.969C260.134 111.335 260.05 111.681 259.898 111.986L268.416 126.689C268.698 126.548 269.011 126.469 269.342 126.469C269.889 126.469 270.389 126.685 270.768 127.037L313.895 91.252C313.784 90.9837 313.723 90.6885 313.723 90.3784C313.723 89.1495 314.681 88.1517 315.862 88.1517C317.044 88.1517 318.002 89.1495 318.002 90.3784C318.002 91.6073 317.044 92.6049 315.862 92.6049C315.392 92.6049 314.959 92.4473 314.605 92.1799L271.387 128.042C271.448 128.248 271.48 128.467 271.48 128.695C271.48 129.924 270.522 130.923 269.342 130.923C268.162 130.923 267.204 129.924 267.204 128.695C267.204 128.25 267.329 127.832 267.548 127.484L259.086 112.884C258.767 113.082 258.394 113.196 257.995 113.196C257.353 113.196 256.775 112.9 256.384 112.433L147.174 193.649C147.181 193.728 147.185 193.809 147.185 193.89C147.185 195.119 146.227 196.116 145.047 196.116C143.867 196.116 142.907 195.119 142.907 193.89C142.907 193.679 142.936 193.475 142.989 193.281L106.53 151.637C106.158 151.962 105.679 152.157 105.157 152.157C104.592 152.157 104.077 151.928 103.695 151.556L63.2768 197.81C63.3394 198.02 63.373 198.241 63.373 198.473C63.373 199.702 62.4145 200.699 61.2342 200.699C60.0538 200.699 59.0953 199.702 59.0953 198.473C59.0953 197.976 59.2509 197.519 59.514 197.149L2.38509 67.5052Z" fill="#DF5D4B"/>
<path fill-rule="evenodd" clip-rule="evenodd" d="M299.134 223.404L303.92 214.284L322.206 243L289.114 242.505L294.031 233.131L55.5964 104.938L36.8698 136.819L19.8351 128.755L0 166.418V143.77L15.732 114.641L32.7027 122.674L51.6819 90.3628L299.134 223.404Z" fill="#EA7049"/>
<path fill-rule="evenodd" clip-rule="evenodd" d="M27.1031 146.217C27.1031 146.217 27.6541 145.006 27.6947 144.952C28.57 143.826 29.6676 142.893 30.8811 142.186C33.2419 140.811 35.8587 140.971 38.4416 140.512C40.9215 140.071 43.2289 139.014 45.3829 137.685C48.9863 135.459 52.0619 132.281 55.8352 130.358C57.2407 129.642 58.7501 129.153 60.2997 128.922C69.4115 127.568 74.0176 135.73 81.4958 138.973C85.5656 140.738 89.3591 139.25 93.5032 141.725C96.2215 143.348 96.3393 146.217 96.3393 146.217H27.1031ZM256.252 69.7436C256.465 68.154 257.837 66.5214 258.095 66.2921C260.962 63.7593 264.563 64.6449 267.903 63.6208C274.466 61.6087 278.482 54.7451 285.191 53.0371C286.211 52.7775 287.285 52.6117 288.338 52.6727C295.133 53.0666 297.604 60.0634 303.165 62.8097C306.778 64.595 310.203 64.1965 313.708 66.7143C315.536 68.0283 315.544 69.7436 315.544 69.7436C315.544 69.7436 271.409 69.8184 256.252 69.7436ZM17.2615 31.6356C17.576 29.4391 18.4961 27.7207 20.733 26.2656C23.3132 24.5872 26.5449 25.079 28.9598 23.0686C34.2587 18.6568 37.7834 9.36029 46.0901 11.28C51.3752 12.5015 54.4076 17.6545 58.535 20.8106C61.9067 23.3889 65.8463 23.8214 69.773 24.9225C72.5196 25.6926 75.4064 26.8137 77.5469 28.8325C78.4438 29.6785 79.137 30.5464 79.5604 31.6356C79.6536 31.875 26.2259 30.9336 17.2615 31.6356Z" fill="#FFF1E8"/>
<path d="M204.465 166.418C221.825 166.418 235.899 151.766 235.899 133.693C235.899 115.62 221.825 100.969 204.465 100.969C187.104 100.969 173.03 115.62 173.03 133.693C173.03 151.766 187.104 166.418 204.465 166.418Z" fill="#FFCD80"/>
<path d="M234.147 154.365C232.815 156.427 231.291 158.342 229.599 160.081" stroke="#FFCD80" stroke-width="0.00292872" stroke-miterlimit="1.5" stroke-linecap="round" stroke-linejoin="round"/>
<path d="M229.53 160.085C226.029 163.684 221.811 166.53 217.122 168.367" stroke="#FFCD80" stroke-width="0.00292872" stroke-miterlimit="1.5" stroke-linecap="round" stroke-linejoin="round"/>
<path d="M173.787 151.863C172.37 149.231 171.254 146.401 170.489 143.422C169.706 140.378 169.289 137.18 169.289 133.88" stroke="#FFCD80" stroke-width="0.00292872" stroke-miterlimit="1.5" stroke-linecap="round" stroke-linejoin="round"/>
<path d="M225.856 104.245C229.788 107.281 233.096 111.144 235.541 115.586" stroke="#FFCD80" stroke-width="0.00292872" stroke-miterlimit="1.5" stroke-linecap="round" stroke-linejoin="round"/>
<path d="M224.411 134.222C224.411 129.953 223.145 125.78 220.774 122.23C218.402 118.681 215.031 115.914 211.087 114.281C207.143 112.647 202.804 112.22 198.617 113.052C194.43 113.885 190.584 115.941 187.565 118.959C184.547 121.978 182.491 125.824 181.658 130.011C180.826 134.198 181.253 138.537 182.887 142.481C184.52 146.425 187.287 149.796 190.836 152.168C194.386 154.54 198.559 155.805 202.827 155.805C208.552 155.805 214.042 153.531 218.09 149.484C222.137 145.436 224.411 139.946 224.411 134.222ZM201.389 145.733C201.389 146.115 201.237 146.481 200.967 146.75C200.697 147.02 200.331 147.172 199.95 147.172C199.568 147.172 199.202 147.02 198.932 146.75C198.662 146.481 198.511 146.115 198.511 145.733L198.511 142.855L191.51 142.855C191.199 142.855 190.896 142.753 190.646 142.566C190.397 142.379 190.216 142.116 190.129 141.816C190.043 141.517 190.055 141.197 190.166 140.906C190.276 140.615 190.479 140.367 190.742 140.2L198.511 135.286L198.511 128.466L191.316 128.466C190.934 128.466 190.568 128.314 190.299 128.044C190.029 127.775 189.877 127.409 189.877 127.027C189.877 126.645 190.029 126.279 190.299 126.009C190.568 125.74 190.934 125.588 191.316 125.588L198.511 125.588L198.511 122.71C198.511 122.329 198.662 121.963 198.932 121.693C199.202 121.423 199.568 121.271 199.95 121.271C200.331 121.271 200.697 121.423 200.967 121.693C201.237 121.963 201.389 122.329 201.389 122.71L201.389 125.588L204.266 125.588L204.266 122.71C204.266 122.329 204.418 121.963 204.688 121.693C204.958 121.423 205.324 121.271 205.705 121.271C206.087 121.271 206.453 121.423 206.723 121.693C206.993 121.963 207.144 122.329 207.144 122.71L207.144 125.588L214.261 125.588C214.573 125.588 214.876 125.69 215.125 125.877C215.374 126.064 215.556 126.327 215.642 126.627C215.729 126.926 215.716 127.246 215.606 127.537C215.495 127.828 215.293 128.076 215.03 128.243L207.144 133.23L207.144 139.977L214.339 139.977C214.72 139.977 215.086 140.129 215.356 140.399C215.626 140.669 215.778 141.035 215.778 141.416C215.778 141.798 215.626 142.164 215.356 142.434C215.086 142.703 214.72 142.855 214.339 142.855L207.144 142.855L207.144 145.733C207.144 146.115 206.993 146.481 206.723 146.75C206.453 147.02 206.087 147.172 205.705 147.172C205.324 147.172 204.958 147.02 204.688 146.75C204.418 146.481 204.266 146.115 204.266 145.733L204.266 142.855L201.389 142.855L201.389 145.733Z" fill="#F56C2A"/>
<path d="M126.678 103.615C139.805 91.7872 141.236 71.121 129.874 57.4558C118.513 43.7906 98.661 42.3011 85.5345 54.1289C72.4079 65.9567 70.9771 86.6229 82.3387 100.288C93.7003 113.953 113.552 115.443 126.678 103.615Z" fill="#FFCD80"/>
<path d="M110.861 42.2528C115.729 42.9944 120.452 44.785 124.685 47.5758" stroke="#FFCD80" stroke-width="0.00287337" stroke-miterlimit="1.5" stroke-linecap="round" stroke-linejoin="round"/>
<path d="M125.684 109.196C123.318 110.938 120.73 112.39 117.965 113.494C115.139 114.623 112.127 115.39 108.975 115.735" stroke="#FFCD80" stroke-width="0.0029145" stroke-miterlimit="1.5" stroke-linecap="round" stroke-linejoin="round"/>
<path d="M70.501 79.0804C70.4614 73.985 71.4313 68.9091 73.365 64.2015" stroke="#FFCD80" stroke-width="0.00287337" stroke-miterlimit="1.5" stroke-linecap="round" stroke-linejoin="round"/>
<path fill-rule="evenodd" clip-rule="evenodd" d="M166.471 110.777C160.674 119.797 155.508 123.563 155.508 123.563C158.091 125.421 158.756 128.62 158.051 130.444L128.733 111.58C142.924 91.6428 143.393 78.7584 142.709 73.5794C137.688 35.5327 137.741 28.0368 139.385 21.3128C143.055 6.29786 151.1 1.44945 158.062 0.290772C166.146 -1.04796 174.075 3.342 177.551 10.9957L177.553 10.986L177.566 11.0262C177.656 11.2232 177.741 11.4221 177.825 11.6231C178.83 14.0554 179.608 16.6666 180.168 19.2843L194.172 63.7162C199.03 79.1348 192.616 95.9663 178.924 103.723L166.471 110.777Z" fill="#A8CFCC"/>
<path fill-rule="evenodd" clip-rule="evenodd" d="M179.775 17.9894C179.881 18.4282 179.98 18.8681 180.075 19.3081L182.291 26.3368C183.89 42.8113 185.229 80.5998 168.633 109.522L166.377 110.801C164.83 113.207 163.329 115.241 161.96 116.926C161.987 116.841 162.027 116.76 162.082 116.687C162.131 116.622 162.181 116.556 162.23 116.489L162.247 116.467L162.272 116.436L162.319 116.37L162.388 116.277L162.413 116.246L162.422 116.232C162.47 116.167 162.519 116.101 162.566 116.036L162.576 116.024L162.597 115.995L162.669 115.896L162.715 115.834L162.738 115.803L162.755 115.779L162.785 115.735L162.895 115.585L162.899 115.579C162.948 115.512 162.996 115.446 163.045 115.379L163.059 115.357L163.082 115.328L163.131 115.257L163.199 115.162L163.218 115.134L163.228 115.122C163.277 115.055 163.325 114.985 163.372 114.918L163.378 114.91L163.393 114.89L163.473 114.776L163.519 114.71L163.536 114.687L163.551 114.665C163.648 114.526 163.743 114.388 163.84 114.249L163.849 114.236L163.865 114.216L163.922 114.131L163.994 114.026L164.005 114.01L164.011 114.002C164.06 113.929 164.11 113.858 164.159 113.784L164.254 113.644L164.302 113.573L164.313 113.557L164.323 113.543C164.42 113.399 164.517 113.254 164.613 113.11L164.617 113.102L164.627 113.09L164.689 112.993L164.762 112.884L164.769 112.874L164.771 112.868C164.868 112.724 164.963 112.577 165.058 112.431L165.068 112.415L165.079 112.401C165.17 112.257 165.263 112.114 165.355 111.972L165.364 111.956L165.381 111.928L165.436 111.843L165.49 111.758L165.512 111.725L165.524 111.707C165.564 111.642 165.606 111.578 165.645 111.513C165.927 111.068 166.2 110.621 166.472 110.171C189.169 72.5264 179.758 18.3414 179.758 18.3414C179.737 18.2203 179.744 18.1006 179.775 17.9894ZM137.929 95.8405L166.472 110.171L165.588 111.485L165.645 111.513L165.524 111.707L165.49 111.758L165.381 111.928L165.355 111.972L165.216 112.186L165.079 112.401L165.058 112.431L164.919 112.645L164.771 112.868L164.762 112.884L164.627 113.09L164.613 113.11L164.465 113.329L164.323 113.543L164.302 113.573L164.161 113.782L164.159 113.784L164.011 114.002L163.994 114.026L163.865 114.216L163.84 114.249L163.694 114.461L163.551 114.665L163.519 114.71L163.393 114.89L163.372 114.918L163.228 115.122L163.199 115.162L163.082 115.328L163.045 115.379L162.899 115.579L162.895 115.585L162.755 115.779L162.715 115.834L162.597 115.995L162.566 116.036L162.422 116.232L162.388 116.277L162.272 116.436L162.23 116.489L162.082 116.687L165.588 111.485L137.26 97.2621C137.492 96.7821 137.714 96.3086 137.929 95.8405Z" fill="#82B5B2"/>
<path fill-rule="evenodd" clip-rule="evenodd" d="M220.567 98.403L141.305 79.3139C140.285 79.0677 139.262 79.7317 139.026 80.7956C138.789 81.8596 139.427 82.9233 140.448 83.1694L219.71 102.258C220.732 102.505 221.755 101.84 221.99 100.777C222.226 99.7128 221.589 98.6491 220.567 98.403ZM222.382 92.9697L136.527 44.743C135.605 44.2244 134.451 44.5836 133.953 45.5448C133.455 46.5058 133.8 47.707 134.723 48.2256L220.576 96.4523C221.498 96.9709 222.654 96.6117 223.152 95.6505C223.65 94.6895 223.304 93.4883 222.382 92.9697Z" fill="#EA7049"/>
<path fill-rule="evenodd" clip-rule="evenodd" d="M175.504 6.98027C172.986 3.05251 168.789 0.512956 164.142 0.103184C156.601 -0.573306 144.211 1.59368 139.385 21.3354C137.741 28.0593 137.688 35.5553 142.709 73.602C143.393 78.781 142.924 91.6654 128.733 111.603L158.051 130.467C158.756 128.643 158.091 125.443 155.508 123.585C154.953 124.46 187.227 102.96 181.001 24.4066C180.526 18.4284 178.671 11.8971 175.504 6.98027Z" fill="url(#paint0_linear_1_214)"/>
<path fill-rule="evenodd" clip-rule="evenodd" d="M138.331 95.1981L166.875 110.348C166.599 110.807 166.324 111.254 166.05 111.688L137.675 96.6269C137.904 96.1441 138.122 95.6678 138.331 95.1981Z" fill="#82B5B2"/>
<path fill-rule="evenodd" clip-rule="evenodd" d="M224.566 64.0421C229.528 55.6785 232.567 47.0865 234.848 38.4043C235.817 34.7203 235.768 30.8422 234.706 27.1842C232.377 19.1549 225.531 6.74285 205.457 4.4704C205.457 4.4704 204.586 4.38968 203.304 4.27057C196.465 3.63642 190.21 8.15479 188.663 14.8463C186.196 25.6238 186.561 41.0121 205.457 47.7068C205.457 47.7068 203.876 53.3425 202.361 58.7342C200.519 65.2983 203.018 72.3109 208.597 76.2294C215.3 80.9421 223.125 84.3552 231.267 85.9594C230.496 87.6535 230.119 88.3332 229.247 91.054C229.066 91.6171 229.125 92.0769 229.306 92.4586C229.57 93.0101 230.089 93.3961 230.693 93.4913C231.298 93.5864 231.91 93.3785 232.33 92.9351C232.934 92.275 233.47 91.5148 234.181 90.3733C234.181 90.3733 235.888 90.0079 237.596 89.6418C238.469 89.4545 239.229 88.9181 239.699 88.1569C240.166 87.3959 240.305 86.4763 240.079 85.6114C239.066 81.6617 237.992 76.8299 235.139 72.7985C232.337 68.8383 228.637 66.2603 224.566 64.0421Z" fill="#A8CFCC"/>
<path fill-rule="evenodd" clip-rule="evenodd" d="M237.327 76.8915C237.99 78.4338 238.501 80.008 238.936 81.5407C238.627 83.6873 237.83 86.5153 236.032 89.9555L234.103 90.3687C233.955 90.6071 233.814 90.8287 233.679 91.0363C233.693 91.0018 233.71 90.9678 233.729 90.9348C238.925 82.1455 237.365 77.2247 237.365 77.2247C237.328 77.1143 237.315 77.0009 237.327 76.8915ZM225.613 64.6668C223.439 63.5548 220.888 62.5222 218.079 61.6536C217.678 61.5291 217.448 61.0883 217.568 60.6696C217.687 60.2507 218.111 60.0117 218.512 60.1362C220.972 60.8969 223.239 61.7816 225.244 62.7345C224.997 63.1698 224.744 63.6039 224.488 64.0374C224.866 64.2438 225.241 64.4531 225.613 64.6668Z" fill="#82B5B2"/>
<path d="M248.177 46.1987C253.384 46.1987 257.606 41.8043 257.606 36.3834C257.606 30.9625 253.384 26.5681 248.177 26.5681C242.97 26.5681 238.749 30.9625 238.749 36.3834C238.749 41.8043 242.97 46.1987 248.177 46.1987Z" fill="#A8CFCC"/>
<path fill-rule="evenodd" clip-rule="evenodd" d="M244.703 35.8232L238.749 35.5797C239.142 30.5381 243.202 26.5681 248.145 26.5681C253.338 26.5681 257.555 30.9477 257.574 36.3496L246.889 35.9125C247.241 35.5478 247.465 35.0031 247.465 34.3949C247.465 33.2975 246.735 32.4066 245.836 32.4066C244.937 32.4066 244.207 33.2975 244.207 34.3949C244.207 34.9552 244.397 35.4615 244.703 35.8232Z" fill="black"/>
<path fill-rule="evenodd" clip-rule="evenodd" d="M204.395 51.4988L205.453 47.7295C188.884 41.859 186.563 29.304 187.912 19.036C189.095 10.0926 196.815 3.6922 205.453 4.49314C218.587 5.97968 226.056 11.8059 230.304 17.907C234.966 24.6218 236.369 33.2096 234.101 41.1514C232.353 47.3318 230.154 53.4592 227.084 59.482L204.395 51.4988Z" fill="url(#paint1_linear_1_214)"/>
<path fill-rule="evenodd" clip-rule="evenodd" d="M200.067 45.3667L208.405 35.1426C208.532 34.9865 208.747 34.9455 208.92 35.0445C209.091 35.1434 209.173 35.3549 209.114 35.5502C207.835 39.7706 205.008 49.0998 205.008 49.0998L204.987 49.097L205.373 47.7197C203.41 47.024 201.646 46.2345 200.067 45.3667Z" fill="#04433F"/>
<path fill-rule="evenodd" clip-rule="evenodd" d="M143.23 83.9023L143.508 85.4715C144.329 85.7946 144.851 86.682 144.713 87.6215C144.642 88.0962 144.416 88.5055 144.095 88.8011L144.703 92.2427L144.718 92.3435L144.728 92.4436L144.733 92.5433V92.6422L144.73 92.7404L144.72 92.8375L144.709 92.9337L144.69 93.0285L144.667 93.1216L144.64 93.2135L144.61 93.3037L144.576 93.3919L144.538 93.4782L144.494 93.5623L144.448 93.6442L144.399 93.7235L144.346 93.8005L144.289 93.8747L144.228 93.9459L144.163 94.0142L144.097 94.0793L144.026 94.1412L143.954 94.1996L143.878 94.2544L143.8 94.3055L143.718 94.3527L143.633 94.3959L143.547 94.4349L143.458 94.4697L143.367 94.5L143.274 94.5257L143.177 94.5467L143.082 94.5625L142.985 94.5732L142.888 94.5787L142.793 94.5791L142.7 94.5747L142.607 94.5654L142.514 94.5516L142.422 94.533L142.333 94.5098L142.246 94.4823L142.158 94.4505L142.073 94.4143L141.991 94.3741L141.909 94.3298L141.831 94.2817L141.755 94.2297L141.681 94.1739L141.611 94.1145L141.54 94.0516L141.476 93.9853L141.413 93.9157L141.354 93.8429L141.297 93.7669L141.246 93.6877L141.196 93.6058L141.151 93.5209L141.109 93.4335L141.071 93.3433L141.039 93.2506L141.01 93.1555L140.983 93.0581L140.964 92.9584L140.25 88.9113L104.766 83.2509C104.024 83.1326 103.419 82.5712 103.22 81.818C103.022 81.0649 103.268 80.2608 103.848 79.7654L134.074 53.948L130.229 32.1804C130.04 31.1064 130.723 30.0739 131.755 29.8765C132.787 29.679 133.778 30.3907 133.968 31.4647L136.306 44.7072C136.369 44.7333 136.428 44.763 136.487 44.7964L221.87 92.7592L224.601 86.6743C225.046 85.685 226.177 85.257 227.127 85.7194C228.079 86.1816 228.49 87.3603 228.045 88.3496L207.716 133.645C207.271 134.634 206.139 135.061 205.188 134.6C204.238 134.137 203.828 132.958 204.27 131.969L217.788 101.858L143.23 83.9023ZM142.481 79.6599L219.432 98.1928L220.258 96.3504L137.186 49.6854L142.481 79.6599ZM138.963 81.6245L134.86 58.3955L109.553 80.0111L139.522 84.7919L138.973 81.6828C138.969 81.6635 138.965 81.6441 138.963 81.6245Z" fill="#EA7049"/>
<path fill-rule="evenodd" clip-rule="evenodd" d="M231.313 87.509C231.703 86.7085 231.393 85.7302 230.624 85.326L222.287 80.9438C221.52 80.5395 220.579 80.8612 220.191 81.6618L218.785 84.5628C218.395 85.3634 218.705 86.3416 219.474 86.7458L227.811 91.1281C228.578 91.5323 229.519 91.2106 229.907 90.4101L231.313 87.509ZM143.37 36.5797C144.225 34.8188 143.545 32.6666 141.853 31.7765L124.982 22.8974C123.29 22.0074 121.223 22.7142 120.368 24.4752C119.513 26.2359 120.192 28.3881 121.883 29.2783L138.755 38.1573C140.447 39.0475 142.514 38.3405 143.37 36.5797Z" fill="black"/>
<path d="M126.826 68.2842C124.79 64.5326 121.686 61.4693 117.908 59.4816C114.13 57.494 109.848 56.6713 105.602 57.1175C101.357 57.5637 97.3387 59.2588 94.0566 61.9885C90.7745 64.7182 88.3756 68.3599 87.1632 72.453C85.9507 76.546 85.9793 80.9067 87.2452 84.9836C88.5111 89.0605 90.9575 92.6704 94.275 95.3569C97.5926 98.0434 101.632 99.6858 105.883 100.076C110.134 100.467 114.406 99.5883 118.157 97.5514C123.188 94.8199 126.927 90.2019 128.553 84.7133C130.179 79.2246 129.558 73.3149 126.826 68.2842ZM112.086 89.3861C112.269 89.7215 112.31 90.1155 112.202 90.4814C112.093 90.8473 111.844 91.1552 111.508 91.3373C111.173 91.5194 110.779 91.5608 110.413 91.4524C110.047 91.344 109.739 91.0947 109.557 90.7593L108.184 88.2302L102.032 91.5705C101.758 91.719 101.443 91.7745 101.135 91.7287C100.827 91.6829 100.542 91.5383 100.323 91.3165C100.104 91.0948 99.9626 90.8079 99.9206 90.4991C99.8787 90.1903 99.9381 89.8762 100.09 89.604L104.573 81.5787L101.318 75.5847L94.9954 79.0177C94.66 79.1998 94.2661 79.2412 93.9001 79.1328C93.5342 79.0244 93.2264 78.7751 93.0443 78.4397C92.8622 78.1043 92.8208 77.7103 92.9291 77.3444C93.0375 76.9785 93.2868 76.6707 93.6222 76.4886L99.945 73.0556L98.5718 70.5265C98.3897 70.1911 98.3483 69.7971 98.4567 69.4312C98.5651 69.0653 98.8144 68.7574 99.1497 68.5753C99.4851 68.3932 99.8791 68.3518 100.245 68.4602C100.611 68.5686 100.919 68.8179 101.101 69.1533L102.474 71.6824L105.003 70.3092L103.63 67.7801C103.448 67.4447 103.406 67.0507 103.515 66.6848C103.623 66.3189 103.873 66.011 104.208 65.8289C104.543 65.6469 104.937 65.6054 105.303 65.7138C105.669 65.8222 105.977 66.0715 106.159 66.4069L107.532 68.936L113.787 65.5401C114.061 65.3916 114.376 65.3361 114.684 65.3819C114.992 65.4277 115.277 65.5723 115.496 65.7941C115.715 66.0158 115.856 66.3027 115.898 66.6115C115.94 66.9203 115.881 67.2344 115.729 67.5066L111.179 75.652L114.398 81.5815L120.721 78.1486C121.056 77.9665 121.45 77.925 121.816 78.0334C122.182 78.1418 122.49 78.3911 122.672 78.7265C122.854 79.0619 122.896 79.4559 122.787 79.8218C122.679 80.1877 122.43 80.4956 122.094 80.6777L115.771 84.1106L117.145 86.6397C117.327 86.9751 117.368 87.3691 117.26 87.735C117.151 88.1009 116.902 88.4088 116.567 88.5909C116.231 88.773 115.837 88.8144 115.471 88.706C115.105 88.5976 114.798 88.3483 114.616 88.0129L113.242 85.4838L110.713 86.857L112.086 89.3861Z" fill="#F56C2A"/>
<defs>
<linearGradient id="paint0_linear_1_214" x1="145.279" y1="61.2659" x2="147.858" y2="-28.2904" gradientUnits="userSpaceOnUse">
<stop stop-color="#A8CFCC"/>
<stop offset="0.6" stop-color="#B8D5D1"/>
<stop offset="0.81" stop-color="#DBE3DC"/>
<stop offset="1" stop-color="#FFF1E8"/>
</linearGradient>
<linearGradient id="paint1_linear_1_214" x1="211.377" y1="31.9538" x2="212.977" y2="-26.8306" gradientUnits="userSpaceOnUse">
<stop stop-color="#82B5B2"/>
<stop offset="1" stop-color="#A8CFCC"/>
</linearGradient>
</defs>
</svg>
