<svg width="296" height="152" viewBox="0 0 296 152" fill="none" xmlns="http://www.w3.org/2000/svg">
<path fill-rule="evenodd" clip-rule="evenodd" d="M10.7033 68.9984V85.6311C10.7033 86.493 10.7663 87.3626 10.8998 88.216C12.1585 96.1344 18.9888 102.451 27.5949 103.695C28.6308 103.857 29.6752 103.93 30.7553 103.93C32.3365 103.93 33.8894 103.76 35.3625 103.443V88.216H56.6469C66.5925 88.216 74.9222 81.5014 76.431 72.7699C76.6011 71.8438 76.6725 70.8764 76.6725 69.9091C76.6725 68.4697 76.4939 67.0475 76.1273 65.6655H36.3805C31.2733 65.6655 26.8635 62.779 25.0239 58.7144C24.4345 57.389 24.113 55.9667 24.113 54.4631C24.113 53.4795 24.2474 52.5276 24.5059 51.6254C25.9075 46.8214 30.7111 43.2521 36.3805 43.2521H68.5121C67.1105 48.0483 62.3068 51.6254 56.6469 51.6254H31.4256V58.7144H56.6469C61.0575 58.7144 65.1458 57.389 68.45 55.1536C72.6454 52.3494 75.5915 48.1057 76.431 43.2521C76.6011 42.3173 76.6725 41.374 76.6725 40.4067C76.6725 38.9433 76.4939 37.5211 76.1273 36.1631H36.3805C26.4255 36.1631 18.0779 42.8948 16.587 51.6254C16.4178 52.5524 16.3285 53.4958 16.3285 54.4631C16.3285 55.9265 16.525 57.3487 16.8907 58.7144C18.9888 66.7468 26.9435 72.7699 36.3805 72.7699H68.5121C67.1105 77.5671 62.3068 81.127 56.6469 81.127H27.5949V96.4514C23.2745 95.4027 19.8546 92.224 18.8187 88.216C18.5959 87.3866 18.4709 86.517 18.4709 85.6311V68.9984H10.7033Z" fill="#02084B"/>
<path d="M93.785 88.6504V71.1969H113.631V67.0098H93.785V53.9464H116.265V49.7105H88.6336V88.6504H93.785Z" fill="black"/>
<path d="M124.272 55.5803C126.291 55.5803 127.915 54.1495 127.915 52.3691C127.915 50.629 126.291 49.2067 124.272 49.2067C122.255 49.2067 120.631 50.629 120.631 52.3691C120.631 54.1495 122.255 55.5803 124.272 55.5803ZM126.621 88.6504V60.4331H121.862V88.6504H126.621Z" fill="black"/>
<path d="M139.34 88.6504V76.6109C139.34 70.8387 140.125 67.7826 142.144 65.8394C143.438 64.5628 145.286 63.7506 147.804 63.7506C149.937 63.7506 151.5 64.2544 152.571 65.3271C153.803 66.6037 154.366 68.6445 154.366 71.6604V88.6504H159.124V71.6604C159.124 69.8714 159.124 66.9121 157.669 64.3598C156.151 61.7586 153.411 59.9216 148.536 59.9216C145.17 59.9216 142.483 61.1408 139.34 64.8147V60.4331H134.582V88.6504H139.34Z" fill="black"/>
<path d="M172.456 88.6504V72.2207H183.223C191.454 72.2207 196.784 67.9857 196.784 60.8401C196.784 53.3364 191.401 49.7105 183.223 49.7105H167.305V88.6504H172.456ZM172.456 53.9464H182.545C188.321 53.9464 191.687 56.4988 191.687 60.9943C191.687 65.5301 188.428 68.0345 182.545 68.0345H172.456V53.9464Z" fill="black"/>
<path d="M211.513 89.1627C214.37 89.1627 216.78 88.6992 218.86 87.5289C220.262 86.7646 221.494 85.6919 222.61 84.2123V88.6504H227.377V72.0177C227.377 70.1233 227.377 65.6852 224.127 62.8313C221.94 60.8889 218.628 59.9216 215.047 59.9216C209.102 59.9216 203.665 63.0352 202.602 68.9041H207.37C208.093 65.734 211.182 63.7506 214.985 63.7506C217.396 63.7506 219.36 64.4651 220.708 65.6852C221.993 66.8641 222.61 68.5469 222.61 70.7419L211.575 72.6765C208.486 73.2369 206.138 74.1074 204.45 75.3343C202.433 76.7574 201.423 78.7494 201.423 81.1475C201.423 86.098 205.29 89.1627 211.513 89.1627ZM212.075 85.3338C208.486 85.3338 206.191 83.6511 206.191 81.0499C206.191 79.8221 206.638 78.8548 207.477 78.0905C208.548 77.1721 210.227 76.5055 212.584 76.0985L222.664 74.2616C222.664 78.9525 221.431 82.2691 217.003 84.3665C215.601 85.0253 213.977 85.3338 212.075 85.3338Z" fill="black"/>
<path d="M247.596 89.1627C251.856 89.1627 254.605 87.935 257.738 84.2611V88.6504H262.506V49.7105H257.738V64.8147C254.542 61.0432 251.749 59.9216 247.596 59.9216C239.249 59.9216 233.812 65.8883 233.812 74.5623C233.812 83.1875 239.249 89.1627 247.596 89.1627ZM248.043 85.3338C242.213 85.3338 238.57 80.6917 238.57 74.5623C238.57 68.3918 242.213 63.7506 248.043 63.7506C253.819 63.7506 257.909 68.2864 257.909 74.5623C257.909 80.7894 253.819 85.3338 248.043 85.3338Z" fill="black"/>
<path d="M272.928 55.5803C274.945 55.5803 276.57 54.1495 276.57 52.3691C276.57 50.629 274.945 49.2067 272.928 49.2067C270.91 49.2067 269.285 50.629 269.285 52.3691C269.285 54.1495 270.91 55.5803 272.928 55.5803ZM275.276 88.6504V60.4331H270.517V88.6504H275.276Z" fill="black"/>
</svg>
