<svg width="66" height="68" viewBox="0 0 66 68" fill="none" xmlns="http://www.w3.org/2000/svg">
<path fill-rule="evenodd" clip-rule="evenodd" d="M0 32.8353V49.468C0 50.33 0.0629826 51.1996 0.196469 52.0529C1.45518 59.9713 8.28552 66.2875 16.8916 67.5316C17.9275 67.6944 18.9719 67.7672 20.052 67.7672C21.6332 67.7672 23.1861 67.5967 24.6591 67.2797V52.0529H45.9436C55.8892 52.0529 64.2189 45.3383 65.7276 36.6069C65.8978 35.6807 65.9692 34.7134 65.9692 33.7461C65.9692 32.3067 65.7906 30.8844 65.424 29.5024H25.6772C20.57 29.5024 16.1602 26.6159 14.3206 22.5514C13.7312 21.2259 13.4097 19.8037 13.4097 18.3C13.4097 17.3164 13.5441 16.3645 13.8026 15.4623C15.2042 10.6584 20.0078 7.08902 25.6772 7.08902H57.8087C56.4071 11.8853 51.6035 15.4623 45.9436 15.4623H20.7223V22.5514H45.9436C50.3542 22.5514 54.4425 21.2259 57.7467 18.9906C61.9421 16.1863 64.8882 11.9427 65.7276 7.08902C65.8978 6.15427 65.9692 5.21095 65.9692 4.24364C65.9692 2.78026 65.7906 1.358 65.424 0H25.6772C15.7222 0 7.37462 6.73174 5.88372 15.4623C5.71451 16.3894 5.6252 17.3327 5.6252 18.3C5.6252 19.7634 5.82167 21.1857 6.18735 22.5514C8.28552 30.5837 16.2401 36.6069 25.6772 36.6069H57.8087C56.4071 41.404 51.6035 44.9639 45.9436 44.9639H16.8916V60.2883C12.5712 59.2396 9.1513 56.061 8.11537 52.0529C7.89258 51.2236 7.76756 50.3539 7.76756 49.468V32.8353H0Z" fill="#02084B"/>
</svg>
