<svg width="186" height="59" viewBox="0 0 186 59" fill="none" xmlns="http://www.w3.org/2000/svg">
<path fill-rule="evenodd" clip-rule="evenodd" d="M6.68378 27.3895V37.8693C6.68378 38.4114 6.72338 38.9622 6.80259 39.4986C7.55809 44.4877 11.6585 48.468 16.8252 49.2507C17.4467 49.3551 18.0742 49.4015 18.7231 49.4015C19.6705 49.4015 20.6027 49.2942 21.4892 49.0942V39.4986H34.2657C40.2366 39.4986 45.2358 35.269 46.1405 29.7667C46.2441 29.1811 46.2868 28.5723 46.2868 27.9635C46.2868 27.0561 46.1801 26.1604 45.9608 25.2907H22.0985C19.0338 25.2907 16.3865 23.4701 15.2807 20.9103C14.9273 20.0754 14.7354 19.1796 14.7354 18.2317C14.7354 17.6113 14.8146 17.0112 14.9699 16.443C15.8107 13.4165 18.6957 11.1668 22.0985 11.1668H41.3882C40.5474 14.1876 37.6625 16.443 34.2657 16.443H19.1252V20.9103H34.2657C36.913 20.9103 39.3684 20.0754 41.3516 18.6665C43.8679 16.8981 45.6379 14.2253 46.1405 11.1668C46.2441 10.5784 46.2868 9.98407 46.2868 9.37528C46.2868 8.45051 46.1801 7.55472 45.9608 6.69952H22.0985C16.1245 6.69952 11.1132 10.9407 10.2176 16.443C10.114 17.0257 10.0622 17.62 10.0622 18.2317C10.0622 19.1535 10.178 20.0493 10.4004 20.9103C11.6585 25.9719 16.4353 29.7667 22.0985 29.7667H41.3882C40.5474 32.7874 37.6625 35.0312 34.2657 35.0312H16.8252V44.6877C14.2297 44.0268 12.1795 42.0236 11.558 39.4986C11.424 38.9767 11.3478 38.4288 11.3478 37.8693V27.3895H6.68378Z" fill="white"/>
<path d="M56.5653 39.1681V28.1694H68.4797V25.5313H56.5653V17.2982H70.0607V14.6311H53.4732V39.1681H56.5653Z" fill="white"/>
<path d="M74.8679 18.3273C76.0804 18.3273 77.0552 17.4316 77.0552 16.3068C77.0552 15.208 76.0804 14.3123 74.8679 14.3123C73.6585 14.3123 72.6806 15.208 72.6806 16.3068C72.6806 17.4316 73.6585 18.3273 74.8679 18.3273ZM76.2784 39.1681V21.3858H73.4209V39.1681H76.2784Z" fill="white"/>
<path d="M83.9126 39.1681V31.5815C83.9126 27.9432 84.3848 26.0183 85.5973 24.7921C86.368 23.989 87.483 23.4759 88.994 23.4759C90.2765 23.4759 91.2118 23.7948 91.8576 24.4703C92.5948 25.2762 92.933 26.5604 92.933 28.4622V39.1681H95.7905V28.4622C95.7905 27.3345 95.7905 25.4704 94.9162 23.8615C94.0053 22.2207 92.3603 21.064 89.4327 21.064C87.4129 21.064 85.7983 21.838 83.9126 24.1543V21.3858H81.0582V39.1681H83.9126Z" fill="white"/>
<path d="M103.793 39.1681V28.8129H110.258C115.199 28.8129 118.398 26.1459 118.398 21.6438C118.398 16.9155 115.165 14.6311 110.258 14.6311H100.701V39.1681H103.793ZM103.793 17.2982H109.85C113.316 17.2982 115.336 18.9071 115.336 21.7394C115.336 24.5978 113.38 26.1749 109.85 26.1749H103.793V17.2982Z" fill="white"/>
<path d="M127.241 39.4899C128.956 39.4899 130.404 39.1971 131.653 38.4607C132.487 37.9795 133.234 37.3011 133.901 36.3706V39.1681H136.764V28.6854C136.764 27.4939 136.764 24.6964 134.815 22.899C133.502 21.6727 131.512 21.064 129.362 21.064C125.794 21.064 122.529 23.0266 121.892 26.7257H124.752C125.188 24.7312 127.043 23.4759 129.325 23.4759C130.772 23.4759 131.951 23.9282 132.761 24.6964C133.532 25.4385 133.901 26.4995 133.901 27.8824L127.272 29.0999C125.423 29.4536 124.015 30.0015 123.001 30.7755C121.788 31.6713 121.185 32.9266 121.185 34.4398C121.185 37.5591 123.503 39.4899 127.241 39.4899ZM127.576 37.0779C125.423 37.0779 124.046 36.0169 124.046 34.3761C124.046 33.6049 124.314 32.9933 124.816 32.512C125.462 31.9351 126.468 31.5148 127.878 31.2568L133.934 30.1001C133.934 33.057 133.194 35.1443 130.538 36.4662C129.694 36.8808 128.719 37.0779 127.576 37.0779Z" fill="white"/>
<path d="M148.904 39.4899C151.46 39.4899 153.111 38.7158 154.994 36.3996V39.1681H157.854V14.6311H154.994V24.1543C153.075 21.7713 151.396 21.064 148.904 21.064C143.893 21.064 140.63 24.8239 140.63 30.2885C140.63 35.7241 143.893 39.4899 148.904 39.4899ZM149.172 37.0779C145.672 37.0779 143.488 34.1529 143.488 30.2885C143.488 26.401 145.672 23.4759 149.172 23.4759C152.639 23.4759 155.094 26.3343 155.094 30.2885C155.094 34.2137 152.639 37.0779 149.172 37.0779Z" fill="white"/>
<path d="M164.109 18.3273C165.321 18.3273 166.296 17.4316 166.296 16.3068C166.296 15.208 165.321 14.3123 164.109 14.3123C162.899 14.3123 161.924 15.208 161.924 16.3068C161.924 17.4316 162.899 18.3273 164.109 18.3273ZM165.519 39.1681V21.3858H162.662V39.1681H165.519Z" fill="white"/>
</svg>
