<svg width="13" height="21" viewBox="0 0 13 21" fill="none" xmlns="http://www.w3.org/2000/svg">
<path d="M11.0166 16.8027V19.0566C11.0165 19.3 10.8022 19.5518 10.4717 19.5518H7.35547C7.74354 19.1991 7.99306 18.6949 7.99316 18.1191C7.99316 17.6032 7.79251 17.1458 7.47266 16.8027H11.0166ZM4.54395 16.8027C4.2669 17.0996 4.07827 17.4814 4.0332 17.9141L4.02344 18.1191L4.0332 18.3232C4.08434 18.8144 4.31944 19.2415 4.66113 19.5518H1.54395C1.21266 19.5516 1.00013 19.3006 1 19.0566V16.8027H4.54395ZM1.54395 1H2.62988C2.62492 1.02965 2.61751 1.0586 2.61426 1.08789L2.60449 1.26953L2.61426 1.4502C2.61706 1.47557 2.62287 1.50071 2.62695 1.52637H1V1.49707C1.00002 1.25131 1.21356 1.00011 1.54395 1ZM10.4717 1C10.8013 1 11.0166 1.25189 11.0166 1.49707V1.52637H9.3916C9.40559 1.43883 9.41406 1.35276 9.41406 1.26953C9.41406 1.18229 9.40413 1.09192 9.38867 1H10.4717Z" fill="url(#paint0_linear_14_3070)" stroke="url(#paint1_linear_14_3070)" stroke-width="2"/>
<defs>
<linearGradient id="paint0_linear_14_3070" x1="6.00808" y1="0" x2="6.00808" y2="20.552" gradientUnits="userSpaceOnUse">
<stop stop-color="#1D3A70"/>
<stop offset="1" stop-color="#1D3A70"/>
</linearGradient>
<linearGradient id="paint1_linear_14_3070" x1="6.00808" y1="0" x2="6.00808" y2="20.552" gradientUnits="userSpaceOnUse">
<stop stop-color="#1D3A70"/>
<stop offset="1" stop-color="#1D3A70"/>
</linearGradient>
</defs>
</svg>
