<?xml version="1.0" encoding="utf-8"?>
<!-- Generator: Adobe Illustrator 27.5.0, SVG Export Plug-In . SVG Version: 6.00 Build 0)  -->
<svg version="1.1" xmlns="http://www.w3.org/2000/svg" xmlns:xlink="http://www.w3.org/1999/xlink" x="0px" y="0px"
	 viewBox="0 0 1122 1122" style="enable-background:new 0 0 1122 1122;" xml:space="preserve">
<g id="Bg">
	<rect style="fill:#FFFFFF;" width="1122" height="1122"/>
</g>
<g id="Object">
	<g>
		<g>
			<g>
				
					<rect x="451.343" y="398.026" transform="matrix(0.3884 -0.9215 0.9215 0.3884 -259.1569 963.9677)" style="fill:#95D6E6;" width="290.504" height="558.371"/>
				<path style="fill:#242326;" d="M797.448,930.82c-1.468,0-2.959-0.286-4.395-0.892l-514.54-216.853
					c-2.769-1.166-4.96-3.385-6.094-6.17c-1.132-2.782-1.114-5.902,0.055-8.67l112.823-267.701c2.43-5.766,9.079-8.47,14.84-6.039
					l514.542,216.852c2.769,1.166,4.96,3.385,6.094,6.17c1.132,2.782,1.114,5.902-0.055,8.67l-112.825,267.7
					C806.068,928.218,801.869,930.82,797.448,930.82z M297.753,696.596l493.66,208.052l104.025-246.821L401.775,449.774
					L297.753,696.596z"/>
			</g>
			<g>
				<path style="fill:#CCF6FF;" d="M794.682,636.388L487.48,506.917c-13.264,27.541-45.398,40.657-74.064,30.229l-44.991,106.752
					c27.478,13.248,40.532,45.402,30.079,74.136l307.202,129.471c13.264-27.542,45.393-40.66,74.066-30.244l44.998-106.749
					C797.283,697.274,784.232,665.114,794.682,636.388z"/>
				<path style="fill:#242326;" d="M705.705,852.793c-0.684,0-1.382-0.133-2.051-0.416L396.451,722.906
					c-2.597-1.093-3.88-4.031-2.914-6.68c9.589-26.362-2.194-55.41-27.406-67.567c-2.537-1.223-3.672-4.221-2.576-6.815
					l44.991-106.752c1.096-2.597,4.031-3.89,6.68-2.914c26.302,9.573,55.316-2.277,67.491-27.556
					c1.223-2.537,4.226-3.677,6.818-2.576l307.201,129.471c2.597,1.093,3.88,4.031,2.914,6.68
					c-9.589,26.365,2.196,55.407,27.416,67.551c2.537,1.223,3.672,4.221,2.576,6.818l-44.998,106.749
					c-1.096,2.597-4.031,3.877-6.677,2.917c-26.307-9.555-55.326,2.295-67.494,27.569
					C709.564,851.684,707.677,852.793,705.705,852.793z M405.017,715.042L703.3,840.753c14.843-25.649,45.001-37.947,73.476-30.002
					l41.241-97.834c-25.597-14.827-37.843-44.996-29.849-73.536L489.885,513.669c-14.842,25.646-44.972,37.965-73.476,29.987
					l-41.233,97.839C400.768,656.33,413.008,686.505,405.017,715.042z"/>
			</g>
			<g>
				
					<ellipse transform="matrix(0.0771 -0.997 0.997 0.0771 -123.2781 1223.4651)" style="fill:#95D6E6;" cx="599.233" cy="678.323" rx="82.72" ry="82.72"/>
				<path style="fill:#242326;" d="M599.114,767.737c-11.564,0-23.302-2.253-34.606-7.018
					c-45.435-19.149-66.82-71.688-47.673-117.121c19.151-45.433,71.696-66.815,117.124-47.671
					c45.433,19.146,66.817,71.688,47.671,117.121l0,0C667.248,747.178,634.014,767.737,599.114,767.737z M599.336,602.3
					c-29.677,0-57.928,17.478-70.161,46.497c-16.279,38.629,1.905,83.302,40.533,99.583c38.649,16.281,83.302-1.907,99.583-40.531
					c16.279-38.631-1.902-83.304-40.531-99.583C619.148,604.218,609.164,602.3,599.336,602.3z M675.461,710.449h0.052H675.461z"/>
			</g>
		</g>
		<g>
			<g>
				
					<rect x="432.898" y="314.645" transform="matrix(0.2243 -0.9745 0.9745 0.2243 -130.2299 1024.0521)" style="fill:#95D6E6;" width="290.504" height="558.371"/>
				<path style="fill:#242326;" d="M817.643,809.335c-0.848,0-1.702-0.096-2.542-0.289L270.956,683.801
					c-2.927-0.674-5.467-2.482-7.062-5.03c-1.592-2.547-2.11-5.623-1.436-8.553l65.162-283.103
					c1.405-6.097,7.489-9.909,13.583-8.498l544.141,125.245c6.097,1.402,9.901,7.484,8.499,13.583l-65.16,283.102
					c-0.674,2.927-2.482,5.467-5.03,7.062C821.837,808.747,819.75,809.335,817.643,809.335z M287.082,664.262l522.063,120.161
					l60.075-261.021l-522.06-120.161L287.082,664.262z"/>
			</g>
			<g>
				<path style="fill:#CCF6FF;" d="M766.281,519.587l-324.876-74.776c-8.336,29.41-37.739,47.851-67.77,42.502L347.65,600.207
					c29.345,8.332,47.728,37.765,42.367,67.867l324.876,74.776c8.336-29.411,37.734-47.853,67.769-42.517l25.992-112.892
					C779.302,579.122,760.92,549.682,766.281,519.587z"/>
				<path style="fill:#242326;" d="M714.896,748.138c-0.393,0-0.791-0.044-1.189-0.135L388.83,673.226
					c-2.745-0.632-4.512-3.305-4.018-6.079c4.921-27.619-11.676-54.21-38.605-61.852c-2.709-0.77-4.34-3.528-3.708-6.274
					l25.985-112.896c0.63-2.745,3.289-4.522,6.079-4.018c27.556,4.9,54.106-11.746,61.756-38.738c0.77-2.709,3.518-4.34,6.274-3.711
					l324.877,74.774c2.745,0.632,4.512,3.305,4.018,6.079c-4.92,27.624,11.678,54.207,38.61,61.839
					c2.711,0.768,4.343,3.528,3.711,6.274l-25.993,112.893c-0.63,2.745-3.299,4.504-6.076,4.02
					c-27.559-4.913-54.108,11.769-61.759,38.753C719.322,746.611,717.211,748.138,714.896,748.138z M395.918,664.007l315.447,72.607
					c10.213-27.817,37.809-45.074,67.231-42.18l23.822-103.465c-27.767-10.205-45.014-37.824-42.037-67.314l-315.447-72.604
					c-10.216,27.819-37.801,45.11-67.231,42.165l-23.815,103.468C381.648,606.901,398.892,634.522,395.918,664.007z"/>
			</g>
			<g>
				
					<ellipse transform="matrix(0.7071 -0.7071 0.7071 0.7071 -250.2023 584.9041)" style="fill:#95D6E6;" cx="580.94" cy="594.473" rx="82.72" ry="82.72"/>
				<path style="fill:#242326;" d="M580.946,683.9c-6.62,0-13.341-0.742-20.062-2.287c-48.048-11.062-78.139-59.149-67.083-107.194
					c5.358-23.276,19.459-43.073,39.706-55.743c20.247-12.667,44.213-16.692,67.488-11.34
					c48.048,11.059,78.142,59.146,67.083,107.194l0,0C658.565,655.857,621.659,683.9,580.946,683.9z M580.795,518.421
					c-14.096,0-27.941,3.945-40.184,11.608c-17.216,10.773-29.204,27.603-33.757,47.392c-9.404,40.851,16.183,81.735,57.033,91.139
					c40.848,9.414,81.735-16.182,91.139-57.033l0,0c4.556-19.792,1.132-40.169-9.641-57.382
					c-10.773-17.216-27.603-29.204-47.392-33.757C592.279,519.071,586.515,518.421,580.795,518.421z M661.552,613.029h0.052H661.552
					z"/>
			</g>
		</g>
		<g>
			<g>
				<rect x="211.723" y="346.341" style="fill:#95D6E6;" width="578.14" height="310.51"/>
				<path style="fill:#242326;" d="M789.862,668.18H211.722c-6.258,0-11.33-5.072-11.33-11.33V346.34
					c0-6.258,5.072-11.329,11.33-11.329h578.141c6.258,0,11.33,5.072,11.33,11.329v310.511
					C801.192,663.109,796.121,668.18,789.862,668.18z M223.051,645.521h555.482V357.67H223.051V645.521z"/>
			</g>
			<g>
				<path style="fill:#CCF6FF;" d="M673.378,379.157H328.205c-1.581,32.633-26.966,58.891-58.511,60.519V563.5
					c31.545,1.643,56.93,27.894,58.511,60.535h345.174c1.58-32.634,26.961-58.892,58.507-60.535l0.008-123.823
					C700.343,438.049,674.959,411.79,673.378,379.157z"/>
				<path style="fill:#242326;" d="M673.379,629.599H328.205c-2.966,0-5.412-2.332-5.555-5.295
					c-1.455-29.992-24.343-53.744-53.245-55.248c-2.956-0.154-5.274-2.597-5.274-5.556V439.676c0-2.961,2.321-5.402,5.277-5.556
					c28.899-1.488,51.787-25.233,53.242-55.232c0.143-2.961,2.589-5.293,5.555-5.293h345.173c2.966,0,5.412,2.332,5.555,5.295
					c1.452,29.997,24.343,53.741,53.245,55.23c2.956,0.154,5.277,2.594,5.277,5.556L737.448,563.5
					c-0.003,2.958-2.318,5.402-5.274,5.556c-28.899,1.504-51.787,25.256-53.239,55.248
					C678.791,627.267,676.345,629.599,673.379,629.599z M333.311,618.472h334.96c3.82-31.395,27.64-56.024,58.053-60.044
					l0.005-113.681c-30.416-4.005-54.238-28.626-58.058-60.026h-334.96c-3.82,31.4-27.642,56.021-58.053,60.026v113.684
					C305.668,562.449,329.491,587.078,333.311,618.472z"/>
			</g>
			<g>
				<ellipse style="fill:#95D6E6;" cx="503.757" cy="501.596" rx="85.649" ry="88.416"/>
				<path style="fill:#242326;" d="M503.757,597.057c-51.111,0-92.693-42.823-92.693-95.461c0-52.636,41.582-95.459,92.693-95.459
					c51.111,0,92.692,42.823,92.692,95.459C596.45,554.234,554.868,597.057,503.757,597.057z M503.757,420.225
					c-43.344,0-78.605,36.503-78.605,81.371s35.261,81.373,78.605,81.373c43.343,0,78.605-36.505,78.605-81.373
					S547.101,420.225,503.757,420.225z"/>
			</g>
		</g>
	</g>
</g>
</svg>
