<svg width="20" height="27" viewBox="0 0 20 27" fill="none" xmlns="http://www.w3.org/2000/svg">
<path d="M10.3819 5.39302L6.229 11.4602H8.9976V15.505L13.1505 9.4378H10.3819V5.39302Z" fill="#1D3A70" fill-opacity="0.9"/>
<path fill-rule="evenodd" clip-rule="evenodd" d="M19.3177 10.296C19.11 12.0265 18.3944 13.666 17.253 15.025C16.5872 15.8171 14.8948 18.0801 14.5349 19.5498H4.84482C4.4849 18.0788 2.79052 15.8157 2.12467 15.023C0.987092 13.6706 0.271297 12.029 0.0620609 10.2926C-0.144225 8.55993 0.166235 6.80605 0.956319 5.24068C1.75383 3.66337 2.99351 2.33817 4.53197 1.41837C6.08378 0.489579 7.86985 -0.00143861 9.69126 3.16598e-06C11.5172 3.16598e-06 13.3057 0.492117 14.8505 1.42039C16.3886 2.34055 17.6278 3.66598 18.4248 5.24338C19.2146 6.80909 19.5245 8.56321 19.3177 10.296ZM13.5541 18.2015H5.8249C5.53005 17.5388 5.13622 16.8748 4.76938 16.3106C4.28666 15.569 3.76165 14.8545 3.19681 14.1702C2.22656 13.0172 1.61597 11.6175 1.43736 10.1369C1.26154 8.66133 1.52586 7.16768 2.19873 5.83459C2.88126 4.48574 3.94193 3.35266 5.25803 2.56641C6.59153 1.76856 8.12624 1.34686 9.69126 1.34826C11.2624 1.34826 12.799 1.77229 14.1245 2.56844C15.4401 3.35485 16.5003 4.48792 17.1824 5.83661C17.8549 7.17003 18.1188 8.66393 17.9424 10.1396C17.7631 11.6198 17.1521 13.0191 16.1816 14.1715C15.8147 14.607 15.1925 15.4146 14.6097 16.3119C14.2428 16.8762 13.8497 17.5388 13.5548 18.2015H13.5541Z" fill="#1D3A70" fill-opacity="0.9"/>
<path d="M4.84473 21.5721C4.84473 21.3933 4.91765 21.2219 5.04745 21.0955C5.17726 20.969 5.35331 20.898 5.53688 20.898H13.8427C14.0262 20.898 14.2023 20.969 14.3321 21.0955C14.4619 21.2219 14.5348 21.3933 14.5348 21.5721C14.5348 21.7509 14.4619 21.9224 14.3321 22.0488C14.2023 22.1752 14.0262 22.2463 13.8427 22.2463H5.53688C5.35331 22.2463 5.17726 22.1752 5.04745 22.0488C4.91765 21.9224 4.84473 21.7509 4.84473 21.5721Z" fill="#1D3A70" fill-opacity="0.9"/>
<path fill-rule="evenodd" clip-rule="evenodd" d="M4.84473 23.5945H14.5348V25.6169C14.5348 25.9745 14.389 26.3174 14.1294 26.5703C13.8698 26.8231 13.5177 26.9652 13.1505 26.9652H6.22903C5.86189 26.9652 5.50979 26.8231 5.25018 26.5703C4.99057 26.3174 4.84473 25.9745 4.84473 25.6169V23.5945ZM6.22903 24.9428H13.1505V25.6169H6.22903V24.9428Z" fill="#1D3A70" fill-opacity="0.9"/>
</svg>
