<svg width="24" height="39" viewBox="0 0 24 39" fill="none" xmlns="http://www.w3.org/2000/svg">
<g clip-path="url(#clip0_1_1330)">
<path d="M13.4 22.1C12.989 22.3815 12.4977 22.5218 12 22.5C11.5023 22.5218 11.011 22.3815 10.6 22.1L0 16.4V26.5C0 27.2957 0.31607 28.0587 0.87868 28.6213C1.44129 29.184 2.20435 29.5 3 29.5H21C21.7956 29.5 22.5587 29.184 23.1213 28.6213C23.6839 28.0587 24 27.2957 24 26.5V16.4L13.4 22.1Z" fill="#1D3A70" fill-opacity="0.7"/>
<path d="M21 9.5H3.00001C2.20437 9.5 1.4413 9.81607 0.878694 10.3787C0.316085 10.9413 1.47444e-05 11.7044 1.47444e-05 12.5V13.5C-0.00094077 13.6803 0.0445606 13.8579 0.132135 14.0155C0.219709 14.1731 0.346405 14.3055 0.500015 14.4L11.5 20.4C11.6536 20.4808 11.8272 20.5156 12 20.5C12.1728 20.5156 12.3465 20.4808 12.5 20.4L23.5 14.4C23.6536 14.3055 23.7803 14.1731 23.8679 14.0155C23.9555 13.8579 24.001 13.6803 24 13.5V12.5C24 11.7044 23.6839 10.9413 23.1213 10.3787C22.5587 9.81607 21.7957 9.5 21 9.5Z" fill="#1D3A70" fill-opacity="0.7"/>
</g>
<defs>
<clipPath id="clip0_1_1330">
<rect width="24" height="24" fill="white" transform="translate(0 7.5)"/>
</clipPath>
</defs>
</svg>
