<svg width="24" height="24" viewBox="0 0 24 24" fill="none" xmlns="http://www.w3.org/2000/svg">
<g clip-path="url(#clip0_1_1644)">
<path d="M23.444 10.239C22.6976 9.18807 21.864 8.20191 20.952 7.29102L16.931 11.312C16.9698 11.5395 16.9928 11.7694 17 12C17 13.3261 16.4732 14.5979 15.5355 15.5355C14.5978 16.4732 13.3261 17 12 17C11.7693 16.9928 11.5395 16.9698 11.312 16.931L8.05499 20.188C9.30363 20.716 10.6443 20.992 12 21C17.708 21 21.905 15.938 23.445 13.76C23.8077 13.2446 24.0023 12.6296 24.0021 11.9994C24.0019 11.3691 23.807 10.7543 23.444 10.239Z" fill="#F56C2A"/>
<path d="M12 3C6.29199 3 2.09999 8.062 0.554989 10.24C0.192362 10.7553 -0.0022583 11.3699 -0.0022583 12C-0.0022583 12.6301 0.192362 13.2448 0.554989 13.76C1.87455 15.641 3.49015 17.2958 5.33899 18.66L8.46299 15.536C7.99863 15.0717 7.63028 14.5205 7.37894 13.9139C7.12761 13.3072 6.99823 12.657 6.99818 12.0004C6.99809 10.6742 7.52482 9.40231 8.46249 8.4645C9.40016 7.52669 10.672 6.99979 11.9981 6.99969C13.3243 6.9996 14.5962 7.52633 15.534 8.464L8.46399 15.536L18.664 5.336C16.7431 3.87675 14.4115 3.05944 12 3Z" fill="#F56C2A"/>
<path d="M1 23.9999C0.80225 23.9999 0.608952 23.9412 0.444542 23.8313C0.280132 23.7214 0.151993 23.5653 0.0763226 23.3826C0.000652529 23.1999 -0.0191504 22.9988 0.0194171 22.8049C0.0579847 22.6109 0.153191 22.4328 0.293001 22.2929L22.293 0.292919C22.4816 0.110761 22.7342 0.00996641 22.9964 0.0122448C23.2586 0.0145233 23.5094 0.119692 23.6948 0.3051C23.8802 0.490508 23.9854 0.741321 23.9877 1.00352C23.99 1.26571 23.8892 1.51832 23.707 1.70692L1.707 23.7069C1.51951 23.8945 1.2652 23.9999 1 23.9999Z" fill="#F56C2A"/>
</g>
<defs>
<clipPath id="clip0_1_1644">
<rect width="24" height="24" fill="white"/>
</clipPath>
</defs>
</svg>
