<svg width="24" height="24" viewBox="0 0 24 24" fill="none" xmlns="http://www.w3.org/2000/svg">
<g clip-path="url(#clip0_14_3042)">
<path d="M23.6329 10.226L12.6329 1.226C12.4542 1.07994 12.2306 1.00015 11.9999 1.00015C11.7691 1.00015 11.5455 1.07994 11.3669 1.226L4.99986 6.435V4.5C4.99986 4.36739 4.94718 4.24022 4.85341 4.14645C4.75964 4.05268 4.63246 4 4.49986 4H3.49985C3.36725 4 3.24007 4.05268 3.1463 4.14645C3.05253 4.24022 2.99985 4.36739 2.99985 4.5V8.071L0.366855 10.226C0.166181 10.3953 0.0401479 10.6368 0.0159702 10.8982C-0.00820746 11.1597 0.0714096 11.4201 0.237631 11.6234C0.403851 11.8266 0.643339 11.9563 0.904384 11.9845C1.16543 12.0127 1.42708 11.9371 1.63285 11.774L2.99985 10.656V22C2.99985 22.2652 3.10521 22.5196 3.29275 22.7071C3.48028 22.8946 3.73464 23 3.99985 23H9.99986V18.5C9.99986 18.3674 10.0525 18.2402 10.1463 18.1464C10.2401 18.0527 10.3672 18 10.4999 18H13.4999C13.6325 18 13.7596 18.0527 13.8534 18.1464C13.9472 18.2402 13.9999 18.3674 13.9999 18.5V23H19.9999C20.2651 23 20.5194 22.8946 20.707 22.7071C20.8945 22.5196 20.9999 22.2652 20.9999 22V10.656L22.3669 11.774C22.5696 11.9451 22.832 12.0286 23.0964 12.0062C23.3607 11.9838 23.6053 11.8573 23.7764 11.6545C23.9474 11.4517 24.0309 11.1893 24.0085 10.925C23.9861 10.6607 23.8596 10.4161 23.6569 10.245L23.6329 10.226ZM13.4999 14H10.4999C10.3672 14 10.2401 13.9473 10.1463 13.8536C10.0525 13.7598 9.99986 13.6326 9.99986 13.5V10.5C9.99986 10.3674 10.0525 10.2402 10.1463 10.1464C10.2401 10.0527 10.3672 10 10.4999 10H13.4999C13.6325 10 13.7596 10.0527 13.8534 10.1464C13.9472 10.2402 13.9999 10.3674 13.9999 10.5V13.5C13.9999 13.6326 13.9472 13.7598 13.8534 13.8536C13.7596 13.9473 13.6325 14 13.4999 14Z" fill="#1D3A70"/>
</g>
<defs>
<clipPath id="clip0_14_3042">
<rect width="24" height="24" fill="white"/>
</clipPath>
</defs>
</svg>
