<svg width="24" height="24" viewBox="0 0 24 24" fill="none" xmlns="http://www.w3.org/2000/svg">
<g clip-path="url(#clip0_14_3045)">
<path d="M3.6088 12.974C3.58097 12.5656 3.24397 12.2408 2.82922 12.2408H1.02361C0.590246 12.2408 0.237305 12.5935 0.237305 13.0271V19.6374C0.237305 20.0708 0.590246 20.4235 1.02361 20.4235H2.82922C3.1485 20.4235 3.42268 20.2309 3.54518 19.9563L9.67802 23.0825C11.2509 23.8864 13.1518 24.0099 14.8867 23.2863C17.2401 22.3075 21.4161 20.5071 22.9455 19.446C23.7902 18.8624 24.0172 17.69 23.4519 16.8325C23.451 16.8314 23.4501 16.8302 23.4496 16.8291C23.4469 16.8247 23.4436 16.8201 23.4409 16.8157C23.0011 16.1592 22.0912 15.8702 21.2929 16.1319C20.889 16.2653 20.0427 16.5434 19.1213 16.8377C20.7388 15.6007 21.7368 13.6649 21.7368 11.5388C21.7368 9.56961 20.8755 7.72741 19.3992 6.46695C19.4425 6.43114 19.4878 6.39782 19.5273 6.35732C19.8324 6.04574 20.0002 5.63788 20.0002 5.20934C20.0002 4.31413 19.2722 3.58572 18.377 3.58572H18.3481L18.8825 2.05998C18.9813 1.77644 18.94 1.4768 18.7704 1.23829C18.5958 0.993349 18.3136 0.846982 18.0144 0.846982C17.7561 0.846982 17.5158 0.954977 17.3825 1.15787L17.3049 0.980483C17.1155 0.528276 16.6766 0.236229 16.1872 0.236229C15.8012 0.236229 15.4423 0.418902 15.2139 0.728417C15.1978 0.746342 15.1831 0.76541 15.1697 0.785862C15.0994 0.892248 14.9965 0.908107 14.9413 0.908107C14.849 0.908107 14.764 0.862379 14.7139 0.786092C14.4882 0.443034 14.1086 0.2383 13.6992 0.2383C13.2097 0.2383 12.7718 0.52966 12.5893 0.965321L12.5484 1.15397C12.1629 0.724742 11.4358 0.780577 11.1118 1.23899C10.9418 1.47819 10.9014 1.77805 11.0011 2.06137L11.541 3.60376C10.6691 3.70129 10.099 4.42278 10.099 5.20935C10.099 5.7188 10.3328 6.1721 10.6969 6.47069C9.22553 7.73178 8.36736 9.57237 8.36736 11.5389C8.36736 12.0246 8.42383 12.5036 8.5264 12.972C8.02357 12.9722 10.3479 12.9712 3.6088 12.974ZM2.67297 19.4823H1.17848V13.182H2.67297V19.4823ZM21.587 17.026C21.9882 16.8945 22.4501 17.0276 22.6587 17.3396C22.661 17.3433 22.6638 17.3472 22.6661 17.3509C22.9519 17.7842 22.8375 18.3768 22.4096 18.6721C20.9515 19.6841 16.8439 21.4529 14.525 22.4175C13.1141 23.0057 11.4703 22.9414 10.1059 22.244L3.6146 18.9352V13.9152H8.53694C10.6226 13.9152 10.4173 16.1 13.0034 16.1H15.6633C16.1007 16.105 16.5076 16.4051 16.5889 16.8305C16.6747 17.3698 16.2499 17.8334 15.7359 17.8334H9.57462C9.31451 17.8334 9.10403 18.0441 9.10403 18.304C9.10403 18.5639 9.31451 18.7746 9.57462 18.7746H15.7359C16.3078 18.7746 21.0014 17.2195 21.587 17.026ZM12.5227 2.09398C12.8991 2.09398 13.2313 1.86834 13.3595 1.54274L13.4505 1.34421C13.5149 1.19117 13.6569 1.17946 13.6992 1.17946C13.7539 1.17946 13.8563 1.19554 13.9276 1.30331C14.1523 1.64522 14.5314 1.84926 14.9414 1.84926C15.3274 1.84926 15.6858 1.66866 15.9142 1.36259C15.9317 1.34352 15.9473 1.3233 15.9616 1.30147C16.0319 1.19348 16.133 1.17739 16.1872 1.17739C16.2295 1.17739 16.3724 1.18957 16.4395 1.35019L16.5172 1.5285C16.6606 1.86857 16.991 2.08847 17.3586 2.08847C17.5806 2.08847 17.7929 2.00667 17.9538 1.86444L17.3513 3.58571H12.5319L11.9294 1.86466C12.0948 2.01149 12.3053 2.09398 12.5227 2.09398ZM11.2451 4.72404C11.5266 4.43688 11.8756 4.55416 12.1978 4.52689C13.8768 4.52689 16.9342 4.52689 18.377 4.52689C18.7529 4.52689 19.059 4.83295 19.059 5.20933C19.059 5.53761 18.8194 5.86025 18.4202 5.89569L11.7272 5.89637L11.6642 5.89385C11.3085 5.85984 11.0402 5.56549 11.0402 5.20933C11.0402 5.02574 11.1105 4.85616 11.2451 4.72404ZM11.7575 6.83755H18.3425C19.8816 7.91177 20.7957 9.65832 20.7957 11.5388C20.7957 13.7792 19.5089 15.7776 17.5273 16.7181C17.3992 15.8628 16.6643 15.1588 15.7359 15.1588H15.6633C15.6596 15.1588 15.656 15.1576 15.6523 15.1576H13.0025C12.455 15.1576 11.9431 14.9654 11.5375 14.6445C11.5305 14.6389 11.5228 14.6342 11.5158 14.6285C11.0788 14.2741 10.7372 13.4824 9.52912 13.1202C9.38252 12.6089 9.30853 12.0784 9.30853 11.5388C9.30854 9.65901 10.2212 7.91269 11.7575 6.83755Z" fill="#979797"/>
<path d="M15.0513 15.0687C17.2567 15.0687 19.0508 13.2744 19.0508 11.0687C19.0508 8.86306 17.2567 7.06871 15.0513 7.06871C12.8458 7.06871 11.0513 8.86306 11.0513 11.0687C11.0513 13.2744 12.8458 15.0687 15.0513 15.0687ZM15.0513 8.00989C16.7378 8.00989 18.1096 9.38213 18.1096 11.0687C18.1096 12.7553 16.7378 14.1275 15.0513 14.1275C13.3647 14.1275 11.9924 12.7553 11.9924 11.0687C11.9924 9.38213 13.3647 8.00989 15.0513 8.00989Z" fill="#979797"/>
<path d="M16.9179 10.6918V11.0469H13.2957V10.6918H16.9179ZM16.9179 11.4588V11.8139H13.2957V11.4588H16.9179ZM16.6285 9.36364V13H15.9644L14.3841 10.7113H14.3557V13H13.5887V9.36364H14.2616L15.833 11.6506H15.8632V9.36364H16.6285Z" fill="#979797"/>
</g>
<defs>
<clipPath id="clip0_14_3045">
<rect width="24" height="24" fill="white"/>
</clipPath>
</defs>
</svg>
