<svg width="24" height="39" viewBox="0 0 24 39" fill="none" xmlns="http://www.w3.org/2000/svg">
<g clip-path="url(#clip0_1_1304)">
<path d="M14 21.5H10C7.879 21.5024 5.84555 22.346 4.34578 23.8458C2.846 25.3456 2.00238 27.379 2 29.5C1.99986 29.712 2.06711 29.9186 2.19203 30.0899C2.31696 30.2612 2.49309 30.3883 2.695 30.453C5.73184 31.2387 8.86449 31.5912 12 31.5C15.1355 31.5912 18.2682 31.2387 21.305 30.453C21.5069 30.3883 21.683 30.2612 21.808 30.0899C21.9329 29.9186 22.0001 29.712 22 29.5C21.9976 27.379 21.154 25.3456 19.6542 23.8458C18.1544 22.346 16.121 21.5024 14 21.5Z" fill="#1D3A70" fill-opacity="0.7"/>
<path d="M12 19.5C15.1 19.5 17.5 16.03 17.5 13.045C17.5 11.5864 16.9205 10.1874 15.8891 9.15596C14.8576 8.12451 13.4587 7.54504 12 7.54504C10.5413 7.54504 9.14236 8.12451 8.11091 9.15596C7.07946 10.1874 6.5 11.5864 6.5 13.045C6.5 16.03 8.9 19.5 12 19.5Z" fill="#1D3A70" fill-opacity="0.7"/>
</g>
<defs>
<clipPath id="clip0_1_1304">
<rect width="24" height="24" fill="white" transform="translate(0 7.5)"/>
</clipPath>
</defs>
</svg>
