<svg width="24" height="24" viewBox="0 0 24 24" fill="none" xmlns="http://www.w3.org/2000/svg">
<g clip-path="url(#clip0_1_1646)">
<path d="M19 10H5C4.20435 10 3.44129 10.3161 2.87868 10.8787C2.31607 11.4413 2 12.2044 2 13V21C2 21.7956 2.31607 22.5587 2.87868 23.1213C3.44129 23.6839 4.20435 24 5 24H19C19.7956 24 20.5587 23.6839 21.1213 23.1213C21.6839 22.5587 22 21.7956 22 21V13C22 12.2044 21.6839 11.4413 21.1213 10.8787C20.5587 10.3161 19.7956 10 19 10ZM12 19C11.6044 19 11.2178 18.8827 10.8889 18.6629C10.56 18.4432 10.3036 18.1308 10.1522 17.7654C10.0009 17.3999 9.96126 16.9978 10.0384 16.6098C10.1156 16.2219 10.3061 15.8655 10.5858 15.5858C10.8655 15.3061 11.2219 15.1156 11.6098 15.0384C11.9978 14.9613 12.3999 15.0009 12.7654 15.1522C13.1308 15.3036 13.4432 15.56 13.6629 15.8889C13.8827 16.2178 14 16.6044 14 17C14 17.5304 13.7893 18.0391 13.4142 18.4142C13.0391 18.7893 12.5304 19 12 19Z" fill="#C4C4C4"/>
<path d="M18 8.00001H16V6.00001C16.0112 4.95112 15.6056 3.94068 14.8723 3.19067C14.1389 2.44065 13.1379 2.01241 12.089 2.00001H12.047C11.5244 1.99087 11.0052 2.08481 10.5189 2.27644C10.0326 2.46808 9.58889 2.75367 9.21305 3.11688C8.83721 3.48009 8.53663 3.9138 8.32849 4.39324C8.12034 4.87267 8.00872 5.38842 8 5.91101V8.00001H6V5.90001C6.01605 4.33173 6.64951 2.83295 7.76309 1.72854C8.87667 0.624133 10.3806 0.00308544 11.949 1.02682e-05H12.01C12.7987 -0.0014514 13.5799 0.153151 14.3086 0.454911C15.0373 0.756671 15.6991 1.19963 16.2559 1.75826C16.8127 2.3169 17.2534 2.98017 17.5528 3.70988C17.8521 4.43959 18.0041 5.22131 18 6.01001V8.00001Z" fill="#C4C4C4"/>
</g>
<defs>
<clipPath id="clip0_1_1646">
<rect width="24" height="24" fill="white"/>
</clipPath>
</defs>
</svg>
