<svg width="16" height="16" viewBox="0 0 16 16" fill="none" xmlns="http://www.w3.org/2000/svg">
<g clip-path="url(#clip0_1_3936)">
<path d="M8.00001 1.33325C3.23068 1.33325 0.266678 7.15592 0.140011 7.40392C0.047533 7.58898 -0.000610352 7.79303 -0.000610352 7.99992C-0.000610352 8.2068 0.047533 8.41085 0.140011 8.59592C0.266678 8.84392 3.23068 14.6666 8.00001 14.6666C12.7693 14.6666 15.7333 8.84392 15.8667 8.59592C15.9592 8.41085 16.0073 8.2068 16.0073 7.99992C16.0073 7.79303 15.9592 7.58898 15.8667 7.40392C15.7333 7.15592 12.7693 1.33325 8.00001 1.33325ZM8.00001 11.9999C5.75468 11.9999 3.77201 9.50525 2.86401 8.00792C3.62401 6.76792 5.59068 3.99992 8.00001 3.99992C10.2453 3.99992 12.228 6.49592 13.136 7.99192C12.376 9.23192 10.4093 11.9999 8.00001 11.9999Z" fill="white"/>
<path d="M8 10C9.10457 10 10 9.10457 10 8C10 6.89543 9.10457 6 8 6C6.89543 6 6 6.89543 6 8C6 9.10457 6.89543 10 8 10Z" fill="white"/>
</g>
<defs>
<clipPath id="clip0_1_3936">
<rect width="16" height="16" rx="8" fill="white"/>
</clipPath>
</defs>
</svg>
