<svg width="24" height="17" viewBox="0 0 24 17" fill="none" xmlns="http://www.w3.org/2000/svg">
<path d="M11.5279 2.09728C15.3361 2.09728 18.8891 3.51608 21.5334 6.09154L23.0558 4.60877C20.0056 1.63692 15.911 0 11.5279 0C7.14479 0.00104864 3.05021 1.63692 0 4.60877L1.52241 6.09154C4.16672 3.51608 7.71973 2.09728 11.5279 2.09728ZM17.6337 10.8083C14.324 7.5848 8.7318 7.5848 5.42211 10.8083L6.94453 12.2911C9.42841 9.87188 13.6274 9.87188 16.1113 12.2911L17.6337 10.8083Z" fill="#1D3A70" fill-opacity="0.9"/>
<path d="M20.612 7.64769C15.6894 2.85122 7.36785 2.85122 2.44531 7.64769L3.96773 9.13047C8.06661 5.1383 14.9907 5.1383 19.0896 9.13047L20.612 7.64769Z" fill="#1D3A70" fill-opacity="0.9"/>
<path d="M11.5279 16.7782C12.7171 16.7782 13.6812 15.8392 13.6812 14.6809C13.6812 13.5226 12.7171 12.5836 11.5279 12.5836C10.3386 12.5836 9.37451 13.5226 9.37451 14.6809C9.37451 15.8392 10.3386 16.7782 11.5279 16.7782Z" fill="#1D3A70" fill-opacity="0.9"/>
</svg>
