<svg width="24" height="10" viewBox="0 0 24 10" fill="none" xmlns="http://www.w3.org/2000/svg">
<path d="M13.02 0.112117L10.192 9.87012H8.76398L6.49598 2.01612L4.14398 9.87012L2.72998 9.88412L-2.14577e-05 0.112117H1.35798L3.48598 8.38612L5.83798 0.112117H7.26598L9.50598 8.35812L11.648 0.112117H13.02ZM18.8382 9.96812C17.9328 9.96812 17.1068 9.75812 16.3602 9.33812C15.6135 8.90878 15.0208 8.31612 14.5822 7.56012C14.1528 6.79478 13.9382 5.93612 13.9382 4.98412C13.9382 4.03212 14.1528 3.17812 14.5822 2.42212C15.0208 1.65678 15.6135 1.06412 16.3602 0.644117C17.1068 0.214783 17.9328 0.000116587 18.8382 0.000116587C19.7528 0.000116587 20.5835 0.214783 21.3302 0.644117C22.0768 1.06412 22.6648 1.65212 23.0942 2.40812C23.5235 3.16412 23.7382 4.02278 23.7382 4.98412C23.7382 5.94545 23.5235 6.80412 23.0942 7.56012C22.6648 8.31612 22.0768 8.90878 21.3302 9.33812C20.5835 9.75812 19.7528 9.96812 18.8382 9.96812ZM18.8382 8.86212C19.5195 8.86212 20.1308 8.70345 20.6722 8.38612C21.2228 8.06878 21.6522 7.61612 21.9602 7.02812C22.2775 6.44012 22.4362 5.75878 22.4362 4.98412C22.4362 4.20012 22.2775 3.51878 21.9602 2.94012C21.6522 2.35212 21.2275 1.89945 20.6862 1.58212C20.1448 1.26478 19.5288 1.10612 18.8382 1.10612C18.1475 1.10612 17.5315 1.26478 16.9902 1.58212C16.4488 1.89945 16.0195 2.35212 15.7022 2.94012C15.3942 3.51878 15.2402 4.20012 15.2402 4.98412C15.2402 5.75878 15.3942 6.44012 15.7022 7.02812C16.0195 7.61612 16.4488 8.06878 16.9902 8.38612C17.5408 8.70345 18.1568 8.86212 18.8382 8.86212Z" fill="#F15A01"/>
</svg>
